<svg width="20" height="21" viewBox="0 0 20 21" fill="none" xmlns="http://www.w3.org/2000/svg">
<path d="M14.0073 19.4994H14.0081C14.8033 19.4994 15.5748 19.3333 16.3139 19.016C18.1461 18.2281 19.553 16.4768 19.4985 14.2314C19.473 13.2472 19.4791 12.2562 19.4851 11.2753C19.4876 10.8499 19.4902 10.4265 19.4902 10.0063V9.99769V9.98906V9.98044V9.97182V9.9632V9.95458V9.94596V9.93734V9.92872V9.92009V9.91147V9.90285V9.89423V9.88561V9.87699V9.86837V9.85975V9.85112V9.8425V9.83388V9.82526V9.81664V9.80802V9.7994V9.79078V9.78216V9.77353V9.76491V9.75629V9.74767V9.73905V9.73043V9.72181V9.71319V9.70457V9.69594V9.68732V9.6787V9.67008V9.66146V9.65284V9.64422V9.6356V9.62698V9.61835V9.60973V9.60111V9.59249V9.58387V9.57525V9.56663V9.55801V9.54939V9.54077V9.53215V9.52352V9.5149V9.50628V9.49766V9.48904V9.48042V9.4718V9.46318V9.45456V9.44594V9.43732V9.42869V9.42007V9.41145V9.40283V9.39421V9.38559V9.37697V9.36835V9.35973V9.35111V9.34249V9.33387V9.32525V9.31663V9.30801V9.29938V9.29076V9.28214V9.27352V9.2649V9.25628V9.24766V9.23904V9.23042V9.2218V9.21318V9.20456V9.19594V9.18732V9.1787V9.17008V9.16146V9.15284V9.14422V9.1356V9.12698V9.11835V9.10973V9.10111V9.09249V9.08387V9.07525V9.06663V9.05801V9.04939V9.04077V9.03215V9.02353V9.01491V9.00629V8.99767V8.98905V8.98043V8.97181V8.96319V8.95457V8.94595V8.93733V8.92871V8.92009V8.91148V8.90285V8.89424V8.88562V8.877V8.86838V8.85976V8.85114V8.84252V8.8339V8.82528V8.81666V8.80804V8.79942V8.7908V8.78218V8.77356V8.76494V8.75632V8.7477V8.73908V8.73047V8.72185V8.71323V8.70461V8.69599V8.68737V8.67875V8.67013V8.66151V8.65289V8.64427V8.63566V8.62704V8.61842V8.6098V8.60118V8.59256V8.58394V8.57532V8.5667V8.55809V8.54947V8.54085V8.53223V8.52361V8.51499V8.50638V8.49776V8.48914V8.48052V8.4719V8.46328V8.45466V8.44605V8.43743V8.42881V8.42019V8.41157V8.40296V8.39434V8.38572V8.3771V8.36848V8.35987V8.35125V8.34263V8.33401V8.32539V8.31678V8.30816V8.29954V8.29092V8.28231V8.27369V8.26507V8.25645V8.24784V8.23922V8.2306V8.22198V8.21337V8.20475V8.19613V8.18751V8.1789V8.17028V8.16166V8.15305V8.14443V8.13581V8.12719V8.11858V8.10996V8.10134V8.09273V8.08411V8.07549V8.06688V8.05826V8.04964V8.04103V8.03241V8.02379V8.01518V8.00656V7.99795V7.98933V7.98071V7.9721V7.96348V7.95486V7.94625V7.93763V7.92902V7.9204V7.91178V7.90317V7.89455V7.88594V7.87732V7.86871V7.86009V7.85147V7.84286V7.83424V7.82563V7.81701V7.8084V7.79978V7.79117V7.78255V7.77394V7.76532V7.75671V7.74809V7.73948V7.73086V7.72225V7.71363V7.70502V7.6964V7.68779V7.67917V7.67056V7.66194V7.65333V7.64471V7.6361V7.62749V7.61887V7.61026V7.60164V7.59303V7.58441V7.5758V7.56719V7.55857V7.54996V7.54134V7.53273V7.52412V7.5155V7.50689V7.49828V7.48966V7.48105V7.47243V7.46382V7.45521V7.4466V7.43798V7.42937V7.42076V7.41214V7.40353V7.39492V7.3863V7.37769V7.36908V7.36047V7.35185V7.34324V7.33463V7.32601V7.3174V7.30879V7.30018V7.29157V7.28295V7.27434V7.26573V7.25712V7.2485V7.23989V7.23128V7.22267V7.21406V7.20545V7.19683V7.18822V7.17961V7.171V7.16239V7.15378V7.14516V7.13655V7.12794V7.11933V7.11072V7.10211V7.0935V7.08489V7.07628V7.06767V7.05906V7.05044V7.04183V7.03322V7.02461V7.016V7.00739V6.99878V6.99017V6.98156V6.97295V6.96434V6.95573V6.94712V6.93851V6.9299V6.92129V6.91268V6.90407V6.89546V6.88685V6.87825V6.86964V6.86103V6.85242V6.84381V6.8352V6.82659V6.81798V6.80937V6.80076V6.79216V6.78355V6.77494V6.76633V6.75772V6.74911V6.7405V6.7319V6.72329V6.71468V6.70607V6.69746V6.68886V6.68025V6.67164V6.66303V6.65443V6.64582V6.63721V6.6286V6.62V6.61139V6.60278V6.59417V6.58557V6.57696V6.56835V6.55975V6.55114V6.54253V6.53393V6.52532V6.51671V6.50811V6.4995V6.49089V6.48229V6.47368V6.46508V6.45647V6.44786V6.43926V6.43065V6.42205V6.41344V6.40484V6.39623V6.38763V6.37902V6.37041V6.36181V6.3532V6.3446V6.33599V6.32739V6.31879V6.31018V6.30158V6.29297V6.28437V6.27576V6.26716V6.25855V6.24995V6.24135V6.23274V6.22414V6.21553V6.20693V6.19833V6.18972V6.18112V6.17252V6.16391V6.15531V6.14671V6.1381V6.1295V6.1209V6.11229V6.10369V6.09509V6.08649V6.07788V6.06928V6.06068V6.05208V6.04348V6.03487V6.02627V6.01767V6.00907V6.00047V5.99186V5.98326V5.97466V5.96606V5.95746V5.94886V5.94026V5.93165V5.92305V5.91445V5.90585V5.89725V5.88865V5.88005V5.87145V5.86285V5.85425V5.84565V5.83705V5.82845V5.81985V5.81125V5.80265V5.79405V5.78545V5.77685V5.76825V5.75965V5.75105V5.74245V5.73385V5.72525V5.71666V5.70806V5.69946V5.69086V5.68226V5.67366V5.66506V5.65647V5.64787V5.63927V5.63067V5.62207V5.61348V5.60488V5.59628C19.4902 4.53908 19.1842 3.59082 18.5527 2.76342C17.3955 1.25032 15.8402 0.532213 13.9396 0.517218L13.939 0.517213C12.0615 0.499962 10.1834 0.503247 8.30293 0.506536C7.55024 0.507853 6.79717 0.50917 6.04364 0.509171C5.10571 0.513065 4.22426 0.697238 3.42071 1.11717C2.46034 1.62212 1.7356 2.24881 1.24964 3.0026C0.765246 3.75395 0.5 4.65936 0.5 5.75349V5.77043V5.78736V5.8043V5.82123V5.83817V5.8551V5.87204V5.88897V5.90591V5.92284V5.93978V5.95671V5.97364V5.99058V6.00751V6.02445V6.04138V6.05831V6.07525V6.09218V6.10912V6.12605V6.14298V6.15992V6.17685V6.19378V6.21071V6.22765V6.24458V6.26151V6.27845V6.29538V6.31231V6.32924V6.34618V6.36311V6.38004V6.39697V6.41391V6.43084V6.44777V6.4647V6.48163V6.49856V6.5155V6.53243V6.54936V6.56629V6.58322V6.60015V6.61708V6.63402V6.65095V6.66788V6.68481V6.70174V6.71867V6.7356V6.75253V6.76946V6.78639V6.80332V6.82025V6.83718V6.85411V6.87104V6.88797V6.9049V6.92183V6.93876V6.95569V6.97262V6.98955V7.00648V7.02341V7.04034V7.05727V7.0742V7.09113V7.10806V7.12499V7.14191V7.15884V7.17577V7.1927V7.20963V7.22656V7.24349V7.26042V7.27734V7.29427V7.3112V7.32813V7.34506V7.36199V7.37891V7.39584V7.41277V7.4297V7.44663V7.46355V7.48048V7.49741V7.51434V7.53127V7.54819V7.56512V7.58205V7.59898V7.6159V7.63283V7.64976V7.66669V7.68361V7.70054V7.71747V7.73439V7.75132V7.76825V7.78517V7.8021V7.81903V7.83596V7.85288V7.86981V7.88674V7.90366V7.92059V7.93751V7.95444V7.97137V7.98829V8.00522V8.02215V8.03907V8.056V8.07292V8.08985V8.10678V8.1237V8.14063V8.15755V8.17448V8.19141V8.20833V8.22526V8.24218V8.25911V8.27604V8.29296V8.30989V8.32681V8.34374V8.36066V8.37759V8.39451V8.41144V8.42836V8.44529V8.46221V8.47914V8.49607V8.51299V8.52991V8.54684V8.56377V8.58069V8.59762V8.61454V8.63146V8.64839V8.66531V8.68224V8.69916V8.71609V8.73301V8.74994V8.76686V8.78379V8.80071V8.81764V8.83456V8.85149V8.86841V8.88533V8.90226V8.91918V8.93611V8.95303V8.96996V8.98688V9.00381V9.02073V9.03765V9.05458V9.0715V9.08843V9.10535V9.12228V9.1392V9.15612V9.17305V9.18997V9.2069V9.22382V9.24074V9.25767V9.27459V9.29152V9.30844V9.32536V9.34229V9.35921V9.37613V9.39306V9.40998V9.42691V9.44383V9.46075V9.47768V9.4946V9.51153V9.52845V9.54537V9.5623V9.57922V9.59614V9.61307V9.62999V9.64692V9.66384V9.68076V9.69769V9.71461V9.73153V9.74846V9.76538V9.7823V9.79923V9.81615V9.83307V9.85V9.86692V9.88385V9.90077V9.91769V9.93462V9.95154V9.96846V9.98539V10.0023V10.0192V10.0362V10.0531V10.07V10.0869V10.1039V10.1208V10.1377V10.1546V10.1715V10.1885V10.2054V10.2223V10.2392V10.2562V10.2731V10.29V10.3069V10.3239V10.3408V10.3577V10.3746V10.3916V10.4085V10.4254V10.4423V10.4592V10.4762V10.4931V10.51V10.5269V10.5439V10.5608V10.5777V10.5946V10.6116V10.6285V10.6454V10.6623V10.6793V10.6962V10.7131V10.73V10.747V10.7639V10.7808V10.7977V10.8146V10.8316V10.8485V10.8654V10.8823V10.8993V10.9162V10.9331V10.95V10.967V10.9839V11.0008V11.0177V11.0347V11.0516V11.0685V11.0854V11.1024V11.1193V11.1362V11.1531V11.1701V11.187V11.2039V11.2208V11.2377V11.2547V11.2716V11.2885V11.3054V11.3224V11.3393V11.3562V11.3731V11.3901V11.407V11.4239V11.4408V11.4578V11.4747V11.4916V11.5085V11.5255V11.5424V11.5593V11.5762V11.5932V11.6101V11.627V11.6439V11.6609V11.6778V11.6947V11.7116V11.7286V11.7455V11.7624V11.7793V11.7963V11.8132V11.8301V11.847V11.864V11.8809V11.8978V11.9147V11.9317V11.9486V11.9655V11.9824V11.9994V12.0163V12.0332V12.0502V12.0671V12.084V12.1009V12.1179V12.1348V12.1517V12.1686V12.1856V12.2025V12.2194V12.2363V12.2533V12.2702V12.2871V12.304V12.321V12.3379V12.3548V12.3718V12.3887V12.4056V12.4225V12.4395V12.4564V12.4733V12.4902V12.5072V12.5241V12.541V12.558V12.5749V12.5918V12.6087V12.6257V12.6426V12.6595V12.6764V12.6934V12.7103V12.7272V12.7442V12.7611V12.778V12.7949V12.8119V12.8288V12.8457V12.8627V12.8796V12.8965V12.9134V12.9304V12.9473V12.9642V12.9812V12.9981V13.015V13.0319V13.0489V13.0658V13.0827V13.0997V13.1166V13.1335V13.1504V13.1674V13.1843V13.2012V13.2182V13.2351V13.252V13.269V13.2859V13.3028V13.3197V13.3367V13.3536V13.3705V13.3875V13.4044V13.4213V13.4383V13.4552V13.4721V13.489V13.506V13.5229V13.5398V13.5568V13.5737V13.5906V13.6076V13.6245V13.6414V13.6584V13.6753V13.6922V13.7092V13.7261V13.743V13.76V13.7769V13.7938V13.8107V13.8277V13.8446V13.8615V13.8785V13.8954V13.9123V13.9293V13.9462V13.9631V13.9801V13.997V14.0139V14.0309V14.0478V14.0647V14.0817V14.0986V14.1155V14.1325V14.1494V14.1663V14.1833V14.2002V14.2171V14.2341V14.251V14.2679V14.2849V14.3018V14.3188V14.3357V14.3526V14.3696V14.3865V14.4034V14.4204C0.5 15.4152 0.773518 16.3199 1.34189 17.1165L14.0073 19.4994ZM14.0073 19.4994C13.2805 19.5005 12.5548 19.5039 11.8299 19.5072M14.0073 19.4994L11.8299 19.5072M5.91827 18.9998L5.91735 18.9998C4.07195 18.9689 2.5504 18.1699 1.55674 16.5436C1.16019 15.8951 0.987477 15.1817 0.987477 14.4405V14.4319V14.4232V14.4145V14.4058V14.3972V14.3885V14.3798V14.3712V14.3625V14.3538V14.3452V14.3365V14.3278V14.3192V14.3105V14.3018V14.2932V14.2845V14.2758V14.2672V14.2585V14.2498V14.2412V14.2325V14.2238V14.2152V14.2065V14.1978V14.1892V14.1805V14.1718V14.1632V14.1545V14.1458V14.1372V14.1285V14.1198V14.1112V14.1025V14.0939V14.0852V14.0765V14.0679V14.0592V14.0505V14.0419V14.0332V14.0245V14.0159V14.0072V13.9985V13.9899V13.9812V13.9725V13.9639V13.9552V13.9466V13.9379V13.9292V13.9206V13.9119V13.9032V13.8946V13.8859V13.8772V13.8686V13.8599V13.8513V13.8426V13.8339V13.8253V13.8166V13.8079V13.7993V13.7906V13.782V13.7733V13.7646V13.756V13.7473V13.7386V13.73V13.7213V13.7127V13.704V13.6953V13.6867V13.678V13.6694V13.6607V13.652V13.6434V13.6347V13.626V13.6174V13.6087V13.6001V13.5914V13.5827V13.5741V13.5654V13.5568V13.5481V13.5394V13.5308V13.5221V13.5134V13.5048V13.4961V13.4875V13.4788V13.4701V13.4615V13.4528V13.4442V13.4355V13.4268V13.4182V13.4095V13.4009V13.3922V13.3835V13.3749V13.3662V13.3576V13.3489V13.3402V13.3316V13.3229V13.3143V13.3056V13.297V13.2883V13.2796V13.271V13.2623V13.2537V13.245V13.2363V13.2277V13.219V13.2104V13.2017V13.193V13.1844V13.1757V13.1671V13.1584V13.1497V13.1411V13.1324V13.1238V13.1151V13.1065V13.0978V13.0891V13.0805V13.0718V13.0632V13.0545V13.0458V13.0372V13.0285V13.0199V13.0112V13.0026V12.9939V12.9852V12.9766V12.9679V12.9593V12.9506V12.9419V12.9333V12.9246V12.916V12.9073V12.8987V12.89V12.8813V12.8727V12.864V12.8554V12.8467V12.8381V12.8294V12.8207V12.8121V12.8034V12.7948V12.7861V12.7775V12.7688V12.7601V12.7515V12.7428V12.7342V12.7255V12.7169V12.7082V12.6995V12.6909V12.6822V12.6736V12.6649V12.6563V12.6476V12.6389V12.6303V12.6216V12.613V12.6043V12.5957V12.587V12.5783V12.5697V12.561V12.5524V12.5437V12.5351V12.5264V12.5177V12.5091V12.5004V12.4918V12.4831V12.4745V12.4658V12.4571V12.4485V12.4398V12.4312V12.4225V12.4139V12.4052V12.3965V12.3879V12.3792V12.3706V12.3619V12.3533V12.3446V12.3359V12.3273V12.3186V12.31V12.3013V12.2927V12.284V12.2754V12.2667V12.258V12.2494V12.2407V12.2321V12.2234V12.2148V12.2061V12.1974V12.1888V12.1801V12.1715V12.1628V12.1542V12.1455V12.1368V12.1282V12.1195V12.1109V12.1022V12.0936V12.0849V12.0762V12.0676V12.0589V12.0503V12.0416V12.033V12.0243V12.0157V12.007V11.9983V11.9897V11.981V11.9724V11.9637V11.9551V11.9464V11.9377V11.9291V11.9204V11.9118V11.9031V11.8945V11.8858V11.8771V11.8685V11.8598V11.8512V11.8425V11.8339V11.8252V11.8165V11.8079V11.7992V11.7906V11.7819V11.7733V11.7646V11.7559V11.7473V11.7386V11.73V11.7213V11.7127V11.704V11.6953V11.6867V11.678V11.6694V11.6607V11.6521V11.6434V11.6347V11.6261V11.6174V11.6088V11.6001V11.5915V11.5828V11.5741V11.5655V11.5568V11.5482V11.5395V11.5309V11.5222V11.5135V11.5049V11.4962V11.4876V11.4789V11.4702V11.4616V11.4529V11.4443V11.4356V11.427V11.4183V11.4096V11.401V11.3923V11.3837V11.375V11.3663V11.3577V11.349V11.3404V11.3317V11.3231V11.3144V11.3057V11.2971V11.2884V11.2798V11.2711V11.2624V11.2538V11.2451V11.2365V11.2278V11.2191V11.2105V11.2018V11.1932V11.1845V11.1759V11.1672V11.1585V11.1499V11.1412V11.1326V11.1239V11.1152V11.1066V11.0979V11.0893V11.0806V11.0719V11.0633V11.0546V11.046V11.0373V11.0286V11.02V11.0113V11.0027V10.994V10.9853V10.9767V10.968V10.9594V10.9507V10.942V10.9334V10.9247V10.9161V10.9074V10.8987V10.8901V10.8814V10.8727V10.8641V10.8554V10.8468V10.8381V10.8294V10.8208V10.8121V10.8035V10.7948V10.7861V10.7775V10.7688V10.7602V10.7515V10.7428V10.7342V10.7255V10.7168V10.7082V10.6995V10.6909V10.6822V10.6735V10.6649V10.6562V10.6475V10.6389V10.6302V10.6216V10.6129V10.6042V10.5956V10.5869V10.5782V10.5696V10.5609V10.5523V10.5436V10.5349V10.5263V10.5176V10.5089V10.5003V10.4916V10.4829V10.4743V10.4656V10.4569V10.4483V10.4396V10.431V10.4223V10.4136V10.405V10.3963V10.3876V10.379V10.3703V10.3616V10.353V10.3443V10.3356V10.327V10.3183V10.3096V10.301V10.2923V10.2837V10.275V10.2663V10.2577V10.249V10.2403V10.2317V10.223V10.2143V10.2057V10.197V10.1883V10.1797V10.171V10.1623V10.1537V10.145V10.1363V10.1277V10.119V10.1103V10.1017V10.093V10.0843V10.0757V10.067V10.0583V10.0496V10.041V10.0323V10.0236V10.015V10.0063C0.987477 9.58063 0.990783 9.15874 0.994072 8.73905C1.00166 7.7701 1.00917 6.81282 0.975684 5.84741L0.975625 5.84573C0.902804 3.5199 2.4668 1.95809 4.09835 1.35062L5.91827 18.9998ZM5.91827 18.9998C8.08733 19.0321 10.2598 19.0231 12.4272 19.014C12.9682 19.0118 13.509 19.0095 14.0493 19.0079M5.91827 18.9998L16.1747 18.5358M16.1747 18.5358L16.1742 18.536C15.5027 18.856 14.784 19.0078 14.0493 19.0079M16.1747 18.5358C17.0531 18.116 17.7691 17.5567 18.2626 16.8227C18.7583 16.0856 19.0072 15.2055 19.0028 14.1844L19.0028 14.1837M16.1747 18.5358L19.0028 14.1837M14.0493 19.0079C14.049 19.0079 14.0487 19.0079 14.0484 19.0079V18.5079L14.0499 19.0079C14.0497 19.0079 14.0495 19.0079 14.0493 19.0079ZM19.0028 14.1837C18.9915 12.1821 18.994 10.1814 18.9965 8.17866C18.9976 7.31966 18.9987 6.46029 18.9987 5.60031C18.9987 4.68941 18.7383 3.84274 18.1922 3.09929L18.1913 3.09799M19.0028 14.1837L18.1913 3.09799M18.1913 3.09799C17.1667 1.71264 15.7351 1.02666 14.0544 1.00878M18.1913 3.09799L14.0544 1.00878M11.8299 19.5072C9.84106 19.5165 7.85822 19.5257 5.87511 19.4874M11.8299 19.5072L5.87511 19.4874M5.87511 19.4874C3.98513 19.4501 2.45319 18.6698 1.34221 17.117L5.87511 19.4874ZM14.0544 1.00878C11.9849 0.984068 9.91448 0.990068 7.84836 0.996055M14.0544 1.00878L7.84836 0.996055M7.84836 0.996055C7.2136 0.997895 6.57926 0.999733 5.94548 1.00068M7.84836 0.996055L5.94548 1.00068M5.94548 1.00068C5.30032 1.00073 4.68494 1.13178 4.09852 1.35055L5.94548 1.00068Z" stroke="white"/>
<path d="M6.30487 9.64022L6.30486 9.63907C6.30487 7.61485 7.98265 5.99481 10.0177 5.99481C12.0469 5.99481 13.7137 7.62088 13.7183 9.62985C13.723 11.6556 12.0562 13.2874 10.0177 13.2874M6.30487 9.64022L10.0177 13.2874M6.30487 9.64022C6.30955 11.6647 7.97973 13.2914 10.0177 13.2874M6.30487 9.64022L10.0177 13.2874M5.81739 9.62619V9.62618C5.81381 7.37107 7.694 5.50733 10.0096 5.50733L10.0104 5.50733C12.3313 5.50372 14.206 7.36119 14.2099 9.63928C14.2097 11.9131 12.3391 13.7749 10.0175 13.7789C7.689 13.7788 5.82098 11.9259 5.81739 9.62619Z" stroke="white"/>
<path d="M14.7705 4.62962L14.7705 4.63316C14.7705 4.93231 15.0055 5.15117 15.2498 5.15304L14.7705 4.62962ZM14.7705 4.62962C14.7683 4.31715 15.0086 4.09717 15.2541 4.09717C15.5012 4.09717 15.7408 4.31506 15.7417 4.62735M14.7705 4.62962L15.7417 4.62735M15.7417 4.62735C15.7386 4.9386 15.4977 5.15485 15.2498 5.15304L15.7417 4.62735Z" stroke="white"/>
</svg>
