<svg width="24" height="20" viewBox="0 0 24 20" fill="none" xmlns="http://www.w3.org/2000/svg">
<path d="M1.92991 17.9434C3.1623 18.5084 4.45718 18.8753 5.80991 19.0335L5.81008 19.0335C7.37801 19.2174 8.93826 19.1575 10.4884 18.8319L1.92991 17.9434ZM1.92991 17.9434C3.93747 17.7847 5.79718 17.0706 7.51947 15.7789L8.56418 14.9954L7.26333 14.8808C6.20477 14.7876 5.35266 14.4805 4.6727 13.9735C4.17742 13.6043 3.75668 13.1165 3.41188 12.4961C3.89264 12.5074 4.38229 12.4666 4.89467 12.3278L6.55298 11.8784L4.91251 11.3678C3.76326 11.01 2.92171 10.4685 2.34554 9.74818C1.90858 9.20188 1.60561 8.52942 1.4489 7.70834C1.9522 7.88709 2.48043 8.00654 3.07193 8.01346L4.60023 8.03133L3.37799 7.11365C2.04739 6.11461 1.39099 4.85108 1.41661 3.24719C1.42534 2.74917 1.51859 2.27169 1.70087 1.81073C4.38629 4.69789 7.71461 6.31056 11.7443 6.59213L12.3547 6.63478L12.2749 6.02812C12.2635 5.94184 12.2544 5.86424 12.2455 5.78802L12.243 5.766C12.235 5.69789 12.2271 5.62907 12.218 5.55914L12.218 5.55869C11.9097 3.18676 13.4467 1.03893 15.7961 0.590411L15.7963 0.590375C17.2749 0.307519 18.5639 0.690046 19.676 1.71595L19.676 1.71598L19.6806 1.72009C19.8136 1.83983 19.9728 1.94562 20.1719 1.99476C20.3712 2.04395 20.5592 2.02377 20.7283 1.97998C21.2584 1.84543 21.7747 1.67842 22.28 1.4768C21.9646 1.92124 21.5598 2.31377 21.0741 2.67683L21.461 3.5696C21.5265 3.55794 21.6063 3.54521 21.6915 3.53162C21.8315 3.50928 21.9863 3.48459 22.1175 3.45836L22.1175 3.4584L22.1234 3.45712C22.2813 3.42353 22.441 3.38725 22.602 3.34666C22.2397 3.72304 21.8478 4.07213 21.4311 4.39813L21.4311 4.39811L21.4268 4.4015C21.3183 4.4883 21.2437 4.5997 21.1972 4.69503C21.1536 4.78433 21.1052 4.92009 21.1112 5.07461C21.1473 6.70343 20.9176 8.2861 20.3922 9.8214L20.392 9.82177C19.3517 12.8691 17.5465 15.3198 14.8417 17.0728C13.512 17.9335 12.0552 18.5011 10.4885 18.8319L1.92991 17.9434ZM23.4806 3.08564C23.48 3.08582 23.4795 3.08601 23.4789 3.08619L23.3584 2.72461L23.3571 2.72065L23.3208 2.61185L23.3582 2.72156L23.3596 2.72553L23.4821 3.0851C23.4816 3.08528 23.4811 3.08546 23.4806 3.08564ZM23.4806 3.08564C23.4912 3.0821 23.5016 3.07859 23.512 3.07512M23.4806 3.08564L23.512 3.07512M22.6891 2.80658L22.7846 3.15193C22.9334 2.98895 23.0768 2.82098 23.2144 2.64768C23.0407 2.70539 22.8666 2.75926 22.6891 2.80658ZM22.6891 2.80658C22.5834 2.83582 22.4777 2.86293 22.372 2.88841M22.6891 2.80658L22.372 2.88841M22.372 2.88841C22.272 2.98422 22.1686 3.07734 22.0619 3.168C22.0612 3.16862 22.0605 3.16924 22.0598 3.16986C21.9351 3.27574 21.806 3.37826 21.6728 3.4778L21.3734 3.07731L21.2859 2.58503C21.3953 2.5656 21.488 2.55105 21.5755 2.53733C21.6905 2.51931 21.7963 2.50272 21.9184 2.47837M22.372 2.88841L21.9184 2.47837M23.512 3.07512C22.9876 3.71548 22.3902 4.28262 21.7392 4.79194L23.512 3.07512ZM22.1218 2.43353C22.508 2.04629 22.8275 1.61738 23.0675 1.1301L22.1218 2.43353ZM22.1218 2.43353C22.0544 2.44895 21.9866 2.46385 21.9184 2.47837M22.1218 2.43353L21.9184 2.47837M15.7024 0.0992807C13.1018 0.595746 11.3956 2.97027 11.7176 5.58755C11.7497 5.58998 11.7818 5.59231 11.814 5.59456L11.8128 5.61134L11.8128 5.61143L11.7791 6.09334L11.2834 6.15857C11.2784 6.12082 11.2739 6.08472 11.2696 6.05006L15.7024 0.0992807ZM15.7024 0.0992807C17.341 -0.214196 18.7896 0.218022 20.015 1.34844C20.205 1.51943 20.3665 1.55742 20.604 1.49568C21.3239 1.31303 22.0167 1.06826 22.6907 0.755274L15.7024 0.0992807Z" stroke="white"/>
</svg>
